<?xml version="1.0" standalone="no"?>
<!DOCTYPE svg PUBLIC "-//W3C//DTD SVG 20010904//EN"
 "http://www.w3.org/TR/2001/REC-SVG-20010904/DTD/svg10.dtd">
<svg version="1.0" xmlns="http://www.w3.org/2000/svg"
 width="700.000000pt" height="700.000000pt" viewBox="0 0 700.000000 700.000000"
 preserveAspectRatio="xMidYMid meet">
<metadata>
Created by potrace 1.11, written by Peter Selinger 2001-2013
</metadata>
<g transform="translate(0.000000,700.000000) scale(0.100000,-0.100000)"
fill="#000000" stroke="none">
<path d="M974 6463 c4 -8 1 -13 -8 -13 -9 0 -16 -5 -16 -11 0 -5 5 -7 11 -4 6
4 5 -2 -2 -13 -7 -12 -18 -18 -24 -14 -5 3 -4 -1 2 -10 7 -8 9 -19 5 -23 -4
-5 -1 -5 6 -1 7 4 10 11 7 16 -3 5 -1 11 4 15 6 3 8 -4 4 -17 -3 -13 -6 -36
-8 -51 -2 -16 -6 -31 -9 -34 -3 -3 -1 -13 4 -22 5 -10 5 -23 0 -31 -6 -9 -4
-20 5 -30 18 -20 19 -31 3 -41 -11 -7 -10 -11 2 -19 13 -8 12 -10 -2 -10 -10
0 -18 -4 -18 -10 0 -5 8 -7 18 -3 14 5 15 3 5 -8 -14 -15 -18 -43 -5 -35 5 3
9 -1 9 -9 0 -8 -4 -12 -8 -10 -15 10 -17 -24 -2 -46 9 -12 12 -19 6 -16 -6 4
-13 0 -17 -8 -3 -8 0 -17 6 -21 7 -5 8 -2 3 6 -6 9 -4 11 5 5 10 -6 10 -11 -3
-20 -20 -15 -22 -26 -4 -19 8 3 14 -2 14 -10 0 -8 -4 -13 -9 -10 -4 3 -8 1 -8
-5 0 -5 4 -12 10 -16 6 -4 5 -15 -2 -30 -8 -19 -8 -28 3 -42 8 -9 9 -14 3 -10
-19 11 -24 -19 -7 -44 9 -12 11 -19 5 -15 -7 4 -12 2 -12 -4 0 -6 -6 -8 -12
-4 -7 4 -4 -3 6 -15 19 -21 30 -65 14 -55 -4 3 -8 1 -8 -5 0 -5 4 -12 10 -16
6 -4 5 -15 -2 -30 -8 -19 -8 -28 3 -42 9 -11 10 -14 2 -9 -7 4 -13 4 -14 -1
-6 -49 -5 -61 7 -56 14 5 13 -21 -1 -34 -4 -4 -5 -2 -1 4 5 9 2 11 -10 6 -14
-5 -13 -8 7 -19 13 -7 19 -13 13 -14 -19 0 -24 -28 -8 -45 9 -8 11 -15 6 -15
-6 0 -12 -7 -16 -15 -3 -8 -2 -14 2 -14 19 3 25 -2 12 -11 -13 -9 -13 -11 0
-20 13 -8 12 -10 -2 -10 -10 0 -18 -4 -18 -10 0 -5 8 -7 18 -3 14 5 15 3 5 -8
-14 -15 -18 -43 -5 -35 5 3 9 -1 9 -9 0 -8 -4 -12 -8 -10 -4 3 -9 -2 -13 -10
-3 -8 0 -17 6 -21 7 -5 8 -2 3 6 -5 8 -4 11 3 6 7 -4 6 -14 -3 -33 -9 -16 -11
-32 -5 -42 4 -8 4 -25 -1 -38 -5 -14 -4 -25 3 -29 7 -5 8 -2 3 7 -5 8 -4 10 0
6 12 -10 15 -38 4 -31 -5 3 -9 -6 -9 -20 0 -14 6 -26 13 -26 8 0 8 -3 -2 -9
-9 -6 -11 -15 -6 -27 13 -32 13 -55 0 -44 -8 7 -12 5 -12 -5 0 -8 7 -15 16
-16 10 0 12 -2 4 -6 -7 -2 -13 -16 -13 -29 0 -13 6 -24 13 -24 8 0 8 -3 -2 -9
-9 -6 -11 -15 -6 -27 13 -32 13 -55 0 -44 -8 7 -12 5 -12 -5 0 -8 7 -15 16
-16 10 0 12 -2 4 -6 -16 -6 -17 -53 -2 -53 6 0 4 -7 -5 -15 -15 -16 -12 -45 6
-45 5 0 2 -8 -7 -17 -16 -16 -16 -17 1 -30 16 -12 16 -13 1 -13 -9 0 -17 -5
-17 -11 0 -5 4 -8 9 -5 5 3 12 -1 15 -10 3 -8 2 -12 -4 -9 -6 3 -10 2 -10 -4
0 -5 6 -12 13 -14 7 -3 5 -6 -5 -6 -10 -1 -18 -6 -18 -12 0 -5 4 -8 9 -4 5 3
12 1 16 -5 3 -5 1 -10 -4 -10 -6 0 -11 -7 -11 -16 0 -8 5 -12 11 -8 6 3 4 -5
-5 -19 -14 -21 -15 -27 -3 -39 12 -12 12 -16 -1 -27 -13 -13 -13 -16 4 -28 16
-12 16 -13 1 -13 -9 0 -17 -5 -17 -11 0 -5 4 -8 9 -5 5 3 12 -1 15 -10 3 -8 2
-12 -4 -9 -6 3 -10 2 -10 -4 0 -5 6 -12 13 -14 7 -3 5 -6 -5 -6 -10 -1 -18 -6
-18 -12 0 -5 4 -8 9 -4 5 3 12 1 16 -5 3 -5 1 -10 -4 -10 -6 0 -11 -7 -11 -16
0 -8 5 -12 11 -8 6 3 4 -5 -5 -19 -16 -23 -16 -26 -1 -41 15 -15 15 -16 -2
-16 -15 0 -15 -2 -4 -9 17 -11 24 -41 10 -41 -5 0 -9 -9 -9 -20 0 -11 6 -20
13 -20 8 0 8 -3 -2 -9 -9 -6 -11 -15 -6 -27 13 -32 13 -55 0 -44 -8 7 -12 5
-12 -5 0 -8 7 -15 16 -16 10 0 12 -2 4 -6 -17 -6 -17 -53 0 -53 8 0 8 -3 -2
-9 -9 -6 -11 -15 -6 -27 13 -32 13 -55 0 -44 -8 7 -12 5 -12 -5 0 -8 7 -15 14
-15 12 0 11 -3 -1 -16 -17 -17 -21 -28 -7 -20 5 3 12 -1 15 -10 3 -8 2 -12 -4
-9 -6 3 -10 2 -10 -4 0 -5 4 -12 10 -16 6 -4 5 -15 -2 -30 -8 -19 -8 -28 3
-42 8 -9 9 -14 3 -10 -19 11 -24 -19 -7 -44 9 -12 11 -19 5 -15 -7 4 -12 3
-12 -3 0 -5 6 -12 13 -14 6 -3 3 -6 -7 -6 -20 -1 -20 -1 0 -16 13 -10 14 -13
3 -10 -19 7 -19 -26 0 -49 12 -14 11 -16 -5 -10 -15 6 -17 4 -7 -6 10 -11 9
-16 -5 -26 -15 -12 -14 -12 8 -7 24 5 24 5 5 -10 -19 -15 -19 -16 -2 -22 17
-7 17 -8 0 -21 -10 -7 -14 -14 -9 -14 5 0 2 -8 -5 -17 -13 -16 -12 -17 4 -4
18 14 20 8 8 -24 -5 -11 -4 -25 1 -32 6 -7 7 -13 2 -13 -5 0 -10 -19 -11 -43
-1 -23 -3 -54 -6 -69 -2 -17 0 -28 7 -28 6 0 4 -5 -4 -10 -13 -9 -13 -10 0
-10 12 0 12 -2 2 -9 -16 -9 -23 -116 -11 -149 7 -17 6 -21 -3 -16 -7 4 -8 3
-4 -4 4 -7 2 -12 -6 -12 -7 0 -2 -7 10 -16 18 -13 21 -19 11 -30 -9 -11 -8
-14 2 -14 11 0 11 -2 -1 -10 -12 -8 -13 -11 -1 -19 9 -6 10 -10 2 -16 -8 -5
-9 -11 -2 -19 8 -9 7 -13 -4 -13 -8 0 -11 5 -8 11 3 6 2 7 -3 3 -15 -14 -10
-41 11 -54 11 -7 14 -12 8 -13 -7 0 -13 -7 -13 -16 0 -8 5 -12 10 -9 16 10 11
-1 -7 -16 -14 -12 -16 -12 -8 0 6 10 4 12 -4 7 -13 -9 -6 -21 11 -21 13 0 21
-42 9 -49 -4 -3 -7 5 -6 19 2 17 -1 22 -12 18 -8 -3 -11 -9 -6 -12 5 -3 9 -22
8 -41 -2 -40 4 -62 14 -55 4 2 8 -3 8 -11 0 -8 -6 -13 -14 -10 -11 4 -11 1 -3
-15 6 -11 16 -17 23 -13 7 4 3 -2 -7 -14 -14 -17 -16 -22 -5 -22 11 0 11 -2
-1 -10 -12 -8 -12 -10 5 -10 12 0 16 -3 9 -8 -14 -8 -13 -133 0 -124 5 3 6 -3
2 -13 -4 -11 -2 -22 6 -27 10 -6 8 -8 -4 -8 -10 0 -18 -5 -18 -11 0 -5 4 -8 9
-4 5 3 12 1 16 -5 3 -5 1 -10 -4 -10 -6 0 -11 -7 -11 -16 0 -9 5 -12 12 -8 6
4 4 -3 -5 -15 -16 -24 -13 -56 5 -45 6 4 3 -5 -7 -19 -12 -19 -13 -27 -4 -33
7 -4 9 -3 5 4 -3 6 -2 13 3 16 5 4 8 -2 7 -11 -2 -9 -8 -19 -14 -21 -7 -2 -12
-8 -12 -13 0 -4 6 -6 13 -3 8 3 14 -2 14 -10 0 -8 -5 -12 -10 -9 -6 4 -8 0 -4
-10 3 -10 2 -17 -3 -17 -6 0 -10 -4 -10 -10 0 -5 7 -7 16 -3 14 5 14 3 3 -15
-11 -17 -10 -23 2 -38 8 -10 9 -15 3 -11 -19 11 -24 -19 -7 -44 9 -12 11 -19
5 -15 -7 4 -12 2 -12 -4 0 -6 -6 -8 -12 -4 -7 4 -4 -3 6 -15 19 -21 30 -65 14
-55 -4 3 -8 1 -8 -5 0 -5 4 -12 10 -16 6 -4 5 -15 -2 -30 -8 -19 -8 -28 3 -42
9 -11 10 -14 2 -9 -7 4 -13 4 -14 -1 -6 -49 -5 -61 7 -56 14 5 13 -21 -1 -34
-4 -4 -5 -2 -1 4 5 9 2 11 -10 6 -14 -5 -13 -8 7 -19 13 -7 19 -13 13 -14 -19
0 -24 -28 -8 -45 9 -8 11 -15 6 -15 -6 0 -12 -7 -16 -15 -3 -8 -2 -14 2 -14
19 3 25 -2 12 -11 -13 -9 -13 -11 0 -20 13 -8 12 -10 -2 -10 -10 0 -18 -4 -18
-10 0 -5 8 -7 18 -3 14 5 15 3 5 -8 -14 -15 -18 -43 -5 -35 5 3 9 -1 9 -9 0
-8 -4 -12 -8 -10 -4 3 -9 -2 -13 -10 -3 -8 0 -17 6 -21 7 -5 8 -2 3 6 -5 8 -4
11 3 6 7 -4 6 -14 -3 -33 -9 -16 -11 -32 -5 -42 4 -8 4 -25 -1 -38 -5 -14 -4
-25 3 -29 7 -5 8 -2 3 7 -5 8 -4 10 0 6 12 -10 15 -38 4 -31 -5 3 -9 -6 -9
-20 0 -14 6 -26 13 -26 8 0 8 -3 -2 -9 -9 -6 -11 -15 -6 -27 13 -32 13 -55 0
-44 -8 7 -12 5 -12 -5 0 -8 7 -15 16 -16 10 0 12 -2 4 -6 -17 -6 -17 -53 0
-53 8 0 8 -3 -2 -9 -9 -6 -11 -15 -6 -27 13 -32 13 -55 0 -44 -8 7 -12 5 -12
-5 0 -8 7 -15 16 -16 10 0 12 -2 4 -6 -16 -6 -17 -53 -2 -53 6 0 4 -7 -5 -15
-15 -16 -12 -45 6 -45 5 0 2 -8 -7 -17 -16 -16 -16 -17 1 -30 16 -12 16 -13 1
-13 -9 0 -17 -5 -17 -11 0 -5 4 -8 9 -5 5 3 12 -1 15 -10 3 -8 2 -12 -4 -9 -6
3 -10 2 -10 -4 0 -5 6 -12 13 -14 7 -3 5 -6 -5 -6 -10 -1 -18 -6 -18 -12 0 -5
4 -8 9 -4 5 3 12 1 16 -5 3 -5 1 -10 -4 -10 -6 0 -11 -7 -11 -16 0 -9 5 -12
12 -8 6 4 4 -3 -5 -16 -13 -18 -14 -27 -5 -38 14 -16 19 -54 6 -46 -4 3 -8 -2
-8 -11 0 -10 5 -13 12 -9 6 4 4 -3 -5 -15 -17 -25 -12 -55 7 -44 6 4 5 -1 -3
-10 -8 -10 -11 -20 -7 -24 3 -3 6 0 6 8 0 12 2 12 10 -1 5 -8 6 -19 2 -25 -4
-6 0 -4 8 5 17 17 29 19 48 7 6 -5 12 -6 12 -2 0 3 10 0 22 -6 l23 -12 -20 24
c-14 16 -15 20 -3 10 9 -7 22 -10 29 -6 8 5 9 1 4 -15 l-7 -22 22 22 c18 18
24 19 38 8 14 -11 15 -10 8 7 -7 18 -5 18 14 -3 24 -26 32 -28 24 -7 -5 11 -2
13 12 8 13 -5 15 -3 9 8 -8 12 -6 12 8 1 9 -8 21 -11 26 -8 5 4 12 2 16 -4 3
-5 13 -10 21 -10 8 0 13 4 10 8 -3 5 1 9 9 9 8 0 12 -4 9 -9 -3 -4 2 -8 11 -8
9 0 14 4 11 8 -3 5 1 9 9 9 8 0 12 -4 9 -9 -3 -4 2 -8 11 -8 9 0 14 4 11 8 -3
5 1 9 9 9 8 0 12 -4 9 -9 -3 -4 2 -8 11 -8 10 0 13 5 9 13 -5 7 0 6 11 -3 10
-8 16 -10 12 -3 -4 6 -2 15 4 19 7 4 9 3 5 -4 -3 -6 -2 -13 3 -16 5 -4 12 -2
16 3 3 5 14 9 25 8 10 -1 16 -5 14 -9 -3 -4 -1 -8 5 -8 5 0 13 5 16 10 8 13
25 13 25 -1 0 -5 -5 -7 -12 -3 -7 5 -8 3 -3 -6 6 -10 11 -9 22 5 9 13 13 15
13 5 0 -11 3 -11 12 -2 15 15 28 15 28 1 0 -5 -5 -7 -12 -3 -7 5 -8 3 -3 -6 6
-10 11 -9 22 5 8 12 13 14 13 6 0 -10 3 -11 13 -3 20 17 52 8 49 -14 -2 -14 1
-13 12 6 14 22 21 21 17 -3 -1 -5 3 -5 9 -2 6 4 9 14 6 24 -5 14 -4 13 8 -1
13 -18 42 -26 32 -10 -3 5 1 9 9 9 8 0 12 -4 9 -9 -3 -4 2 -8 11 -8 9 0 14 4
11 8 -3 5 1 9 9 9 8 0 12 -4 9 -9 -3 -4 2 -8 11 -8 9 0 14 4 11 8 -2 4 5 9 17
9 17 2 19 0 7 -7 -13 -8 -13 -10 -1 -10 8 0 23 8 34 17 11 10 17 13 14 7 -10
-17 19 -39 29 -23 5 8 3 10 -7 4 -12 -7 -12 -5 -1 6 11 12 14 12 22 -1 8 -13
10 -13 10 -1 0 11 4 10 13 -4 11 -14 16 -15 22 -5 6 9 4 11 -6 5 -12 -7 -12
-5 -1 6 11 12 14 12 22 -1 7 -11 10 -12 10 -2 0 10 4 10 16 -2 19 -20 25 -20
18 -3 -3 8 2 14 10 14 8 0 13 -4 11 -8 -3 -4 2 -9 10 -13 8 -3 14 -2 14 2 -1
4 -1 14 0 22 1 13 3 13 10 1 5 -8 7 -21 4 -30 -2 -9 2 -5 10 8 11 18 16 20 20
10 4 -12 6 -12 6 0 1 11 4 11 19 0 15 -12 15 -11 -1 8 -14 16 -15 23 -6 29 8
5 10 3 4 -6 -5 -8 -4 -11 3 -7 12 8 4 49 -12 59 -6 4 0 8 14 8 20 1 22 2 9 10
-10 6 -14 21 -13 42 1 18 -2 39 -8 45 -8 10 -4 10 20 2 17 -6 36 -17 43 -25 6
-8 16 -14 21 -14 5 0 48 -18 96 -41 174 -81 227 -102 368 -143 260 -76 461
-106 724 -107 192 -1 328 12 500 48 41 8 85 17 96 19 12 2 61 15 109 29 1002
291 1720 1171 1811 2220 15 173 5 452 -21 595 -3 14 -7 43 -11 65 -20 144
-111 444 -180 593 -47 103 -88 186 -94 192 -3 3 -14 21 -24 40 -38 70 -130
210 -139 210 -4 0 -5 5 -2 10 3 6 -1 13 -9 16 -9 3 -16 12 -16 20 0 8 -4 14
-10 14 -5 0 -10 7 -10 15 0 8 -9 19 -20 25 -11 6 -20 15 -20 20 0 5 -13 24
-30 42 -16 18 -41 47 -56 63 -14 17 -23 24 -19 16 6 -9 4 -12 -4 -7 -6 4 -9
11 -6 16 3 5 1 11 -5 15 -6 4 -7 11 -4 17 4 6 2 8 -4 4 -6 -3 -32 15 -58 41
-26 27 -51 47 -55 46 -5 -2 -5 5 -2 14 4 11 3 14 -5 9 -8 -4 -12 0 -12 11 0
15 -2 16 -10 3 -8 -13 -10 -12 -10 3 0 10 -4 15 -10 12 -6 -3 -10 4 -11 17 0
13 -3 17 -6 10 -6 -16 -33 3 -33 23 0 7 -7 16 -16 19 -15 6 -15 4 -3 -11 13
-16 12 -17 -3 -4 -10 7 -18 19 -18 26 0 7 -8 19 -17 26 -11 10 -14 10 -9 2 4
-7 2 -13 -3 -13 -6 0 -11 5 -11 11 0 5 -5 7 -10 4 -6 -4 -10 -3 -9 2 4 21 -3
31 -27 42 -14 6 -30 8 -36 4 -8 -4 -9 0 -5 11 5 13 0 18 -23 23 -16 3 -27 9
-24 14 3 5 0 9 -6 9 -6 0 -9 4 -6 9 8 13 -20 21 -31 10 -7 -7 -17 -2 -31 15
-20 26 -40 36 -26 14 4 -7 -7 -2 -24 11 -38 26 -43 39 -7 15 14 -9 25 -12 25
-8 0 17 -77 52 -93 42 -11 -6 -20 -2 -30 12 -7 11 -17 17 -22 12 -5 -4 -5 -2
-1 5 4 7 -3 17 -16 25 -32 17 -61 21 -52 6 4 -7 3 -8 -4 -4 -6 4 -8 14 -5 24
5 14 3 15 -8 5 -16 -16 -29 -17 -29 -2 0 5 6 7 13 3 6 -4 4 1 -5 12 -14 15
-20 16 -30 5 -11 -10 -9 -11 7 -6 16 6 17 5 5 -4 -10 -7 -19 -6 -31 5 -8 8
-18 12 -21 9 -3 -3 -11 3 -19 12 -13 16 -12 17 4 4 9 -7 17 -9 17 -3 0 8 -25
24 -33 20 -1 -1 -11 4 -23 10 -14 8 -24 8 -31 1 -7 -7 -17 -4 -32 12 -12 13
-27 24 -34 25 -6 1 -19 5 -28 9 -10 3 -20 1 -25 -6 -4 -7 -3 -10 4 -5 6 3 13
2 16 -3 9 -14 -22 -7 -37 9 -9 10 -9 11 1 6 6 -4 12 -5 12 -1 0 5 -44 25 -65
29 -5 1 -16 5 -22 9 -7 5 -17 6 -22 2 -5 -3 -12 -1 -15 3 -5 8 -24 9 -59 3 -5
0 -5 -7 0 -13 4 -8 -3 -6 -17 3 -14 9 -35 15 -47 13 -16 -3 -23 1 -23 12 0 11
-5 14 -17 9 -10 -3 -20 -7 -23 -8 -3 -1 -6 3 -7 8 -1 6 4 9 12 7 7 -1 16 1 18
5 3 5 -11 9 -31 10 -49 3 -75 7 -89 16 -6 4 -14 3 -18 -3 -6 -9 14 -14 42 -11
17 2 25 -16 12 -25 -7 -4 -9 -3 -6 3 4 7 -5 10 -26 8 -17 -1 -36 1 -42 4 -5 3
-30 6 -55 7 -66 2 -70 3 -70 14 0 7 6 7 20 0 16 -8 20 -8 20 4 0 10 -9 13 -30
11 -22 -3 -29 -1 -23 8 5 9 3 9 -9 0 -8 -7 -18 -10 -21 -6 -4 3 -9 -1 -13 -10
-4 -13 -9 -14 -19 -4 -7 7 -11 15 -8 20 2 4 0 7 -5 7 -5 0 -14 -10 -20 -22 -7
-15 -11 -17 -11 -8 -1 13 -2 13 -12 0 -9 -13 -10 -13 -6 0 2 8 11 13 18 12 8
-2 10 0 6 5 -11 11 -67 13 -67 2 0 -5 5 -8 11 -7 6 2 13 -3 14 -10 2 -7 1 -8
-2 -2 -2 5 -10 7 -16 3 -17 -10 -57 -12 -51 -1 8 12 -10 10 -24 -4 -9 -9 -12
-9 -12 1 0 11 -3 11 -17 0 -11 -10 -14 -10 -9 -1 4 6 3 12 -3 12 -5 0 -12 -6
-14 -12 -4 -10 -6 -10 -6 0 -1 6 -6 12 -12 12 -5 0 -8 -4 -5 -8 2 -4 -12 -9
-32 -9 -20 -1 -58 -4 -84 -6 -32 -3 -45 0 -42 8 3 6 11 12 19 12 8 0 12 -4 9
-9 -3 -4 0 -8 5 -8 6 0 11 6 11 13 0 8 4 7 10 -3 5 -8 10 -10 10 -4 0 5 18 9
40 8 25 -1 37 2 33 9 -3 5 -1 7 5 3 6 -3 13 -2 17 4 3 5 -1 10 -9 10 -8 0 -18
-4 -21 -10 -3 -5 -11 -10 -16 -10 -6 0 -7 5 -3 12 5 7 3 8 -6 3 -20 -12 -90
-12 -90 0 0 5 -5 3 -10 -5 -6 -11 -23 -15 -54 -15 -25 1 -46 -2 -46 -7 0 -4
-8 -5 -17 -2 -15 5 -15 4 -3 -4 8 -6 17 -9 20 -7 4 2 7 -1 7 -8 0 -7 -8 -13
-18 -13 -10 0 -16 3 -14 6 2 3 -10 13 -26 22 -17 10 -28 12 -26 5 1 -6 -3 -11
-10 -12 -6 0 -15 -3 -18 -7 -4 -4 -17 -3 -28 3 -14 8 -18 8 -13 0 4 -6 0 -11
-8 -11 -9 0 -16 -4 -16 -8 0 -5 7 -9 15 -9 8 0 15 4 15 9 0 5 11 6 25 4 13 -3
27 -1 30 4 7 11 36 6 35 -6 0 -5 -8 -9 -17 -9 -10 0 -22 -3 -28 -6 -5 -3 -22
-5 -37 -4 -16 1 -28 -1 -28 -5 0 -4 -10 -7 -22 -6 -17 1 -22 7 -20 21 2 15 1
17 -6 6 -6 -7 -14 -11 -20 -7 -5 3 -12 -1 -15 -9 -4 -9 -1 -12 7 -9 8 3 17 1
21 -5 4 -7 0 -8 -11 -4 -10 4 -15 2 -11 -4 3 -5 0 -10 -8 -10 -8 0 -12 4 -9 9
3 4 0 8 -7 8 -8 0 -7 5 2 18 13 15 12 16 -3 3 -10 -7 -15 -18 -11 -25 3 -6 -3
-3 -15 8 -19 16 -22 17 -28 3 -3 -9 -14 -14 -25 -12 -10 2 -25 -2 -33 -10 -7
-8 -16 -11 -20 -8 -3 4 -6 2 -6 -3 0 -5 -10 -9 -22 -10 -36 -2 -60 -9 -94 -27
-17 -9 -34 -13 -38 -10 -3 4 -6 0 -6 -8 0 -8 9 -15 20 -16 11 -1 19 4 17 10
-1 7 6 11 15 11 10 -1 15 3 11 9 -4 6 -1 7 7 2 9 -5 11 -4 6 3 -4 8 -2 10 8 6
8 -3 21 -2 28 2 21 13 35 13 35 -2 0 -7 -4 -11 -8 -8 -4 2 -11 0 -14 -6 -4 -6
-16 -8 -27 -4 -15 5 -19 3 -13 -7 5 -8 5 -11 0 -7 -4 4 -21 -2 -36 -13 -16
-11 -29 -16 -29 -11 0 5 -7 9 -15 9 -9 0 -14 -6 -11 -14 3 -7 2 -12 -2 -11 -4
1 -16 -3 -27 -9 -18 -10 -21 -9 -21 7 0 14 4 16 12 9 9 -7 16 -5 23 10 8 13 8
22 1 26 -6 4 -9 1 -8 -6 2 -6 -3 -14 -11 -17 -9 -3 -11 0 -6 8 4 7 -4 4 -19
-5 -14 -10 -26 -22 -26 -29 0 -6 5 -4 10 4 6 9 10 10 10 3 0 -18 -31 -45 -46
-39 -8 3 -14 1 -14 -4 0 -5 -9 -14 -21 -21 -16 -8 -24 -8 -33 2 -8 9 -8 10 1
5 6 -3 19 -3 28 0 13 5 14 8 3 15 -10 7 -8 9 7 10 11 1 27 1 35 0 13 -2 13 -1
0 10 -13 9 -13 10 2 5 12 -3 15 -1 11 10 -4 11 -9 12 -19 3 -8 -6 -14 -8 -14
-4 0 5 -8 1 -18 -8 -10 -10 -22 -14 -25 -11 -4 4 -9 -1 -13 -10 -3 -9 -11 -13
-16 -10 -6 4 -5 -3 1 -15 11 -19 8 -25 -11 -22 -5 0 -8 -4 -8 -11 0 -6 -3 -8
-6 -5 -4 4 -1 13 5 21 19 23 -5 30 -34 9 -28 -21 -31 -30 -10 -30 8 0 11 5 8
11 -3 6 0 5 8 -3 11 -10 11 -15 2 -18 -7 -2 -15 -4 -19 -3 -3 1 -12 -7 -20
-17 -13 -17 -14 -17 -8 0 5 13 2 16 -12 11 -15 -5 -16 -4 -4 4 8 6 18 8 24 5
5 -3 6 -1 2 6 -4 6 -14 10 -23 9 -11 -2 -16 7 -18 30 -1 18 2 32 8 32 6 0 2 7
-9 15 -12 9 -13 13 -4 10 11 -4 16 1 16 14 0 11 -3 18 -7 15 -9 -5 -17 18 -12
34 3 6 10 10 16 6 7 -3 3 2 -7 10 -17 14 -17 16 -4 16 9 0 20 5 23 10 4 6 3
10 -2 9 -19 -3 -21 2 -13 29 4 16 4 36 -1 45 -7 11 -5 19 7 25 15 8 15 10 0
15 -11 5 -15 3 -10 -5 5 -7 3 -8 -6 -3 -10 6 -10 10 3 19 10 8 12 17 6 28 -7
12 -5 19 7 26 15 8 15 10 0 15 -11 5 -15 3 -10 -5 4 -7 3 -8 -5 -4 -7 5 -9 12
-3 19 15 20 21 57 10 64 -6 3 -8 1 -4 -5 3 -6 2 -13 -3 -16 -5 -4 -8 1 -7 11
2 9 11 20 22 24 16 7 16 8 -6 8 -19 1 -22 3 -10 10 8 6 19 7 25 5 5 -3 3 0 -6
8 -10 9 -13 21 -9 38 4 16 2 31 -7 42 -13 15 -13 16 9 11 13 -3 19 -1 13 4 -6
4 -16 21 -23 37 -12 26 -12 28 3 16 13 -11 14 -10 9 5 -6 14 -4 16 7 10 8 -5
3 4 -11 20 -14 16 -19 25 -12 21 12 -7 16 4 13 33 -2 8 2 10 11 5 7 -4 2 5
-12 21 -14 16 -20 25 -14 22 15 -9 27 20 12 29 -7 5 -8 2 -3 -6 6 -9 4 -11 -5
-5 -10 6 -7 13 11 27 13 10 18 17 10 16 -7 -2 -16 3 -19 11 -2 8 0 11 6 7 12
-7 10 20 -3 31 -4 4 -5 2 0 -6 6 -10 4 -12 -5 -6 -10 6 -7 13 11 27 13 10 18
17 10 16 -7 -2 -16 3 -19 11 -2 8 0 11 5 8 5 -3 8 12 7 36 -1 23 3 46 10 50 7
6 5 7 -6 3 -10 -3 -20 -1 -23 4 -4 6 4 10 17 10 20 1 21 2 6 10 -13 8 -15 17
-8 39 6 21 4 33 -8 44 -14 15 -13 15 9 11 14 -3 19 -2 13 3 -14 10 -37 76 -24
68 12 -7 14 57 2 71 -4 5 -5 8 -3 7 2 -2 10 5 17 15 13 18 10 32 -9 32 -8 0
-8 -3 2 -9 9 -6 10 -11 2 -15 -11 -7 -15 5 -12 32 1 6 -3 12 -9 12 -6 0 -8 5
-5 10 3 6 1 10 -4 10 -6 0 -11 -10 -11 -22 -1 -23 -1 -23 -15 2 -13 22 -20 21
-16 -3 1 -4 -8 -3 -19 3 -16 9 -22 8 -27 -5 -4 -13 -8 -14 -14 -4 -8 13 -204
18 -216 5 -4 -3 -14 1 -23 9 -18 16 -54 10 -44 -7 4 -6 -2 -5 -14 1 -26 14
-35 14 -27 1 3 -6 -1 -7 -9 -4 -10 4 -16 1 -16 -7 -1 -11 -3 -10 -10 1 -6 12
-24 15 -71 13 -35 -1 -69 3 -76 9 -11 8 -12 7 -7 -8 5 -17 4 -17 -8 -4 -7 8
-19 16 -27 18 -12 3 -12 0 -1 -13 7 -8 10 -18 6 -22 -3 -3 -6 -1 -6 6 0 8 -6
11 -16 7 -8 -3 -13 -2 -10 3 3 5 -1 11 -9 14 -9 4 -12 1 -9 -7 3 -8 0 -17 -6
-21 -6 -3 -10 -3 -9 2 5 28 -28 41 -48 18 -5 -4 -2 -5 6 0 10 6 12 4 7 -4 -6
-9 -12 -8 -26 4 -17 15 -19 15 -39 -6 -19 -20 -20 -21 -17 -3 3 14 -2 20 -14
20 -13 0 -16 -4 -10 -11 7 -8 3 -11 -13 -9 -12 1 -24 3 -27 4 -3 1 -34 2 -70
2 -36 0 -74 5 -85 11 -19 9 -19 9 -5 -8 11 -14 11 -17 1 -11 -8 5 -17 3 -23
-5 -8 -11 -9 -10 -5 3 3 9 0 19 -8 22 -10 3 -12 0 -9 -12 5 -15 4 -15 -8 -2
-18 21 -43 19 -41 -4 1 -15 -2 -15 -25 6 -14 13 -22 17 -18 11z m410 -19 c3
-8 2 -12 -4 -9 -6 3 -10 10 -10 16 0 14 7 11 14 -7z m426 7 c0 -6 -4 -12 -8
-15 -5 -3 -9 1 -9 9 0 8 4 15 9 15 4 0 8 -4 8 -9z m-835 -211 c-3 -5 -12 -10
-18 -10 -7 0 -6 4 3 10 19 12 23 12 15 0z m1210 -149 c3 -5 2 -12 -3 -15 -5
-3 -9 1 -9 9 0 17 3 19 12 6z m1450 -730 c3 -5 2 -12 -3 -15 -5 -3 -9 1 -9 9
0 17 3 19 12 6z m-488 -18 c2 -5 -10 -10 -27 -10 -28 0 -37 7 -25 19 9 8 49 2
52 -9z m-362 -82 c-10 -10 -34 10 -29 24 6 14 8 13 19 -2 8 -10 12 -20 10 -22z
m1305 28 c0 -4 -9 -7 -19 -6 -11 0 -18 4 -16 7 6 9 35 8 35 -1z m65 -11 c5 4
5 1 1 -5 -10 -18 -23 -16 -30 3 -5 13 -4 14 7 6 8 -7 18 -8 22 -4z m-1421 -10
c-3 -4 1 -8 8 -8 10 0 10 -2 -1 -9 -7 -5 -21 -8 -30 -6 -9 1 -19 -3 -23 -9 -4
-6 -10 -7 -14 -3 -8 8 34 44 52 44 7 0 11 -4 8 -9z m1451 -8 c3 -5 1 -10 -4
-10 -6 0 -11 5 -11 10 0 6 2 10 4 10 3 0 8 -4 11 -10z m111 -39 c1 -6 0 -7 -3
-1 -2 5 -9 8 -13 5 -5 -3 -11 -1 -14 4 -4 5 2 8 11 7 9 -2 18 -8 19 -15z m99
-23 c5 4 5 2 2 -5 -8 -13 -47 -6 -47 9 0 5 8 4 19 -1 10 -6 22 -7 26 -3z
m-2050 -78 c3 -5 1 -10 -4 -10 -6 0 -11 5 -11 10 0 6 2 10 4 10 3 0 8 -4 11
-10z m2239 -29 c-4 -3 -9 0 -11 7 -3 6 -10 9 -15 6 -7 -4 -8 -2 -4 5 6 9 11 9
22 0 8 -6 12 -15 8 -18z m-2294 5 c0 -2 -7 -7 -16 -10 -8 -3 -12 -2 -9 4 6 10
25 14 25 6z m2398 -61 c-3 -3 -9 2 -12 12 -6 14 -5 15 5 6 7 -7 10 -15 7 -18z
m-3738 -1935 c0 -5 -2 -10 -4 -10 -3 0 -8 5 -11 10 -3 6 -1 10 4 10 6 0 11 -4
11 -10z m0 -294 c0 -3 -4 -8 -10 -11 -5 -3 -10 -1 -10 4 0 6 5 11 10 11 6 0
10 -2 10 -4z m10 -160 c0 -2 -7 -7 -16 -10 -8 -3 -12 -2 -9 4 6 10 25 14 25 6z"/>
<path d="M2706 5262 c-3 -5 1 -9 9 -9 8 0 12 4 9 9 -3 4 -7 8 -9 8 -2 0 -6 -4
-9 -8z"/>
<path d="M940 6199 c0 -5 5 -7 10 -4 6 3 10 8 10 11 0 2 -4 4 -10 4 -5 0 -10
-5 -10 -11z"/>
<path d="M940 5899 c0 -5 5 -7 10 -4 6 3 10 8 10 11 0 2 -4 4 -10 4 -5 0 -10
-5 -10 -11z"/>
<path d="M940 5719 c0 -5 5 -7 10 -4 6 3 10 8 10 11 0 2 -4 4 -10 4 -5 0 -10
-5 -10 -11z"/>
<path d="M940 5659 c0 -5 5 -7 10 -4 6 3 10 8 10 11 0 2 -4 4 -10 4 -5 0 -10
-5 -10 -11z"/>
<path d="M3719 5433 c-13 -16 -12 -17 4 -4 16 13 21 21 13 21 -2 0 -10 -8 -17
-17z"/>
<path d="M3345 5380 c-2 -3 15 -5 38 -5 23 1 47 -1 52 -4 19 -11 34 -9 29 3
-5 13 -111 18 -119 6z"/>
<path d="M3706 5366 c3 -8 16 -13 32 -11 15 2 33 -2 40 -7 9 -8 11 -7 6 5 -3
9 -17 15 -33 15 -16 -1 -33 2 -39 6 -8 4 -10 2 -6 -8z"/>
<path d="M3961 5324 c0 -11 3 -14 6 -6 3 7 2 16 -1 19 -3 4 -6 -2 -5 -13z"/>
<path d="M2876 5315 c-3 -8 -1 -15 4 -15 6 0 10 7 10 15 0 8 -2 15 -4 15 -2 0
-6 -7 -10 -15z"/>
<path d="M3980 5318 c0 -6 3 -8 7 -5 3 4 12 2 20 -5 11 -8 17 -8 26 2 9 9 9
11 0 6 -6 -3 -14 -2 -18 4 -9 14 -35 13 -35 -2z"/>
<path d="M4325 5220 c3 -5 8 -10 11 -10 2 0 4 5 4 10 0 6 -5 10 -11 10 -5 0
-7 -4 -4 -10z"/>
<path d="M4632 5081 c2 -7 7 -12 11 -12 12 1 9 15 -3 20 -7 2 -11 -2 -8 -8z"/>
<path d="M4780 4996 c0 -2 8 -10 18 -17 15 -13 16 -12 3 4 -13 16 -21 21 -21
13z"/>
<path d="M939 4143 c-13 -16 -12 -17 4 -4 9 7 17 15 17 17 0 8 -8 3 -21 -13z"/>
<path d="M940 3739 c0 -5 5 -7 10 -4 6 3 10 8 10 11 0 2 -4 4 -10 4 -5 0 -10
-5 -10 -11z"/>
<path d="M919 2938 c-6 -16 -4 -88 2 -88 4 0 6 12 5 28 -2 15 1 32 6 39 6 7 5
14 -2 18 -5 3 -10 5 -11 3z"/>
<path d="M915 2769 c-4 -6 -5 -12 -2 -15 2 -3 7 2 10 11 7 17 1 20 -8 4z"/>
<path d="M940 1879 c0 -5 5 -7 10 -4 6 3 10 8 10 11 0 2 -4 4 -10 4 -5 0 -10
-5 -10 -11z"/>
<path d="M940 1819 c0 -5 5 -7 10 -4 6 3 10 8 10 11 0 2 -4 4 -10 4 -5 0 -10
-5 -10 -11z"/>
<path d="M940 579 c0 -5 5 -7 10 -4 6 3 10 8 10 11 0 2 -4 4 -10 4 -5 0 -10
-5 -10 -11z"/>
<path d="M1215 429 c-4 -6 -5 -12 -2 -15 2 -3 7 2 10 11 7 17 1 20 -8 4z"/>
<path d="M1650 436 c0 -2 7 -7 16 -10 8 -3 12 -2 9 4 -6 10 -25 14 -25 6z"/>
</g>
</svg>
