<?xml version="1.0" standalone="no"?>
<!DOCTYPE svg PUBLIC "-//W3C//DTD SVG 20010904//EN"
 "http://www.w3.org/TR/2001/REC-SVG-20010904/DTD/svg10.dtd">
<svg version="1.0" xmlns="http://www.w3.org/2000/svg"
 width="700.000000pt" height="700.000000pt" viewBox="0 0 700.000000 700.000000"
 preserveAspectRatio="xMidYMid meet">
<metadata>
Created by potrace 1.11, written by Peter Selinger 2001-2013
</metadata>
<g transform="translate(0.000000,700.000000) scale(0.100000,-0.100000)"
fill="#000000" stroke="none">
<path d="M3220 6790 c-972 -68 -1785 -438 -2252 -1026 -532 -670 -783 -1767
-648 -2829 36 -282 95 -539 180 -790 41 -119 121 -320 132 -330 2 -1 228 -175
503 -385 l500 -382 5 2323 5 2324 29 53 c78 140 309 290 651 425 119 47 382
137 400 137 3 0 5 -439 5 -975 0 -536 2 -975 4 -975 3 0 37 13 78 29 92 37
222 75 336 98 68 14 136 18 312 18 198 0 239 -3 340 -24 626 -130 1135 -583
1325 -1182 153 -482 88 -1015 -175 -1444 -386 -628 -1126 -948 -1850 -799
-107 22 -290 85 -392 134 l-87 41 -459 -117 -459 -118 46 -36 c25 -20 227
-174 448 -343 l403 -308 122 -24 c336 -65 705 -88 1048 -65 984 67 1796 442
2256 1042 217 283 402 662 509 1043 273 969 198 2081 -200 2931 -133 285 -318
549 -526 749 -449 431 -1112 709 -1889 790 -179 19 -533 26 -700 15z"/>
</g>
</svg>
